<svg width="586" height="160" viewBox="0 0 586 160" fill="none" xmlns="http://www.w3.org/2000/svg">
<path d="M381.311 160C375.911 160 370.678 159.233 365.611 157.7C360.611 156.167 356.644 154.133 353.711 151.6L358.211 141.5C361.078 143.767 364.578 145.633 368.711 147.1C372.911 148.5 377.111 149.2 381.311 149.2C386.511 149.2 390.378 148.367 392.911 146.7C395.511 145.033 396.811 142.833 396.811 140.1C396.811 138.1 396.078 136.467 394.611 135.2C393.211 133.867 391.411 132.833 389.211 132.1C387.011 131.367 384.011 130.533 380.211 129.6C374.878 128.333 370.544 127.067 367.211 125.8C363.944 124.533 361.111 122.567 358.711 119.9C356.378 117.167 355.211 113.5 355.211 108.9C355.211 105.033 356.244 101.533 358.311 98.4C360.444 95.2 363.611 92.6667 367.811 90.8C372.078 88.9333 377.278 88 383.411 88C387.678 88 391.878 88.5333 396.011 89.6C400.144 90.6667 403.711 92.2 406.711 94.2L402.611 104.3C399.544 102.5 396.344 101.133 393.011 100.2C389.678 99.2667 386.444 98.8 383.311 98.8C378.178 98.8 374.344 99.6667 371.811 101.4C369.344 103.133 368.111 105.433 368.111 108.3C368.111 110.3 368.811 111.933 370.211 113.2C371.678 114.467 373.511 115.467 375.711 116.2C377.911 116.933 380.911 117.767 384.711 118.7C389.911 119.9 394.178 121.167 397.511 122.5C400.844 123.767 403.678 125.733 406.011 128.4C408.411 131.067 409.611 134.667 409.611 139.2C409.611 143.067 408.544 146.567 406.411 149.7C404.344 152.833 401.178 155.333 396.911 157.2C392.644 159.067 387.444 160 381.311 160Z" fill="#070707"/>
<path d="M308.132 160C300.998 160 294.565 158.467 288.832 155.4C283.098 152.267 278.598 147.967 275.332 142.5C272.065 136.967 270.432 130.8 270.432 124C270.432 117.2 272.065 111.067 275.332 105.6C278.598 100.067 283.098 95.7667 288.832 92.7C294.565 89.5667 300.998 88 308.132 88C315.265 88 321.698 89.5667 327.432 92.7C333.165 95.7667 337.665 100.033 340.932 105.5C344.198 110.967 345.832 117.133 345.832 124C345.832 130.867 344.198 137.033 340.932 142.5C337.665 147.967 333.165 152.267 327.432 155.4C321.698 158.467 315.265 160 308.132 160ZM308.132 148.6C312.798 148.6 316.998 147.567 320.732 145.5C324.465 143.367 327.398 140.433 329.532 136.7C331.665 132.9 332.732 128.667 332.732 124C332.732 119.333 331.665 115.133 329.532 111.4C327.398 107.6 324.465 104.667 320.732 102.6C316.998 100.467 312.798 99.4 308.132 99.4C303.465 99.4 299.265 100.467 295.532 102.6C291.798 104.667 288.865 107.6 286.732 111.4C284.598 115.133 283.532 119.333 283.532 124C283.532 128.667 284.598 132.9 286.732 136.7C288.865 140.433 291.798 143.367 295.532 145.5C299.265 147.567 303.465 148.6 308.132 148.6Z" fill="#070707"/>
<path d="M231.171 88C239.371 88 245.771 90.4 250.371 95.2C254.971 99.9333 257.271 106.767 257.271 115.7V159H244.271V116.2C244.271 110.667 242.804 106.5 239.871 103.7C237.004 100.833 233.237 99.4 228.571 99.4C223.371 99.4 219.204 100.867 216.071 103.8C213.004 106.733 211.471 111.233 211.471 117.3V159H198.471V116.2C198.471 110.6 197.104 106.4 194.371 103.6C191.704 100.8 188.037 99.4 183.371 99.4C178.104 99.4 173.871 100.9 170.671 103.9C167.537 106.833 165.971 111.3 165.971 117.3V159H152.971V89H165.571V98.2C167.704 94.9333 170.604 92.4333 174.271 90.7C177.937 88.9 182.171 88 186.971 88C191.904 88 196.204 88.9333 199.871 90.8C203.537 92.6667 206.304 95.3 208.171 98.7C210.504 95.3 213.671 92.6667 217.671 90.8C221.737 88.9333 226.237 88 231.171 88Z" fill="#070707"/>
<path d="M101.491 160C94.3577 160 87.9243 158.467 82.191 155.4C76.4577 152.267 71.9577 147.967 68.691 142.5C65.4243 136.967 63.791 130.8 63.791 124C63.791 117.2 65.4243 111.067 68.691 105.6C71.9577 100.067 76.4577 95.7667 82.191 92.7C87.9243 89.5667 94.3577 88 101.491 88C108.624 88 115.058 89.5667 120.791 92.7C126.524 95.7667 131.024 100.033 134.291 105.5C137.558 110.967 139.191 117.133 139.191 124C139.191 130.867 137.558 137.033 134.291 142.5C131.024 147.967 126.524 152.267 120.791 155.4C115.058 158.467 108.624 160 101.491 160ZM101.491 148.6C106.158 148.6 110.358 147.567 114.091 145.5C117.824 143.367 120.758 140.433 122.891 136.7C125.024 132.9 126.091 128.667 126.091 124C126.091 119.333 125.024 115.133 122.891 111.4C120.758 107.6 117.824 104.667 114.091 102.6C110.358 100.467 106.158 99.4 101.491 99.4C96.8244 99.4 92.6244 100.467 88.891 102.6C85.1577 104.667 82.2244 107.6 80.091 111.4C77.9577 115.133 76.891 119.333 76.891 124C76.891 128.667 77.9577 132.9 80.091 136.7C82.2244 140.433 85.1577 143.367 88.891 145.5C92.6244 147.567 96.8244 148.6 101.491 148.6Z" fill="#070707"/>
<path d="M27.6 160C22.2 160 16.9667 159.233 11.9 157.7C6.89999 156.167 2.93333 154.133 0 151.6L4.5 141.5C7.36667 143.767 10.8667 145.633 15 147.1C19.2 148.5 23.4 149.2 27.6 149.2C32.8 149.2 36.6667 148.367 39.2 146.7C41.8 145.033 43.1 142.833 43.1 140.1C43.1 138.1 42.3667 136.467 40.9 135.2C39.5 133.867 37.7 132.833 35.5 132.1C33.3 131.367 30.3 130.533 26.5 129.6C21.1667 128.333 16.8333 127.067 13.5 125.8C10.2333 124.533 7.4 122.567 5 119.9C2.66667 117.167 1.5 113.5 1.5 108.9C1.5 105.033 2.53334 101.533 4.60001 98.4C6.73334 95.2 9.90001 92.6667 14.1 90.8C18.3667 88.9333 23.5667 88 29.7 88C33.9667 88 38.1667 88.5333 42.3 89.6C46.4334 90.6667 50 92.2 53 94.2L48.9 104.3C45.8333 102.5 42.6334 101.133 39.3 100.2C35.9667 99.2667 32.7333 98.8 29.6 98.8C24.4667 98.8 20.6333 99.6667 18.1 101.4C15.6333 103.133 14.4 105.433 14.4 108.3C14.4 110.3 15.1 111.933 16.5 113.2C17.9667 114.467 19.8 115.467 22 116.2C24.2 116.933 27.2 117.767 31 118.7C36.2 119.9 40.4667 121.167 43.8 122.5C47.1333 123.767 49.9667 125.733 52.3 128.4C54.7 131.067 55.9 134.667 55.9 139.2C55.9 143.067 54.8333 146.567 52.7 149.7C50.6333 152.833 47.4667 155.333 43.2 157.2C38.9333 159.067 33.7333 160 27.6 160Z" fill="#070707"/>
<path d="M383.776 11.9V60.1H396.676V71H357.976V60.1H370.876V11.9H357.976V1H396.676V11.9H383.776Z" fill="#9C4BFF"/>
<path d="M322.085 72C316.685 72 311.452 71.2333 306.385 69.7C301.385 68.1667 297.419 66.1333 294.485 63.6L298.985 53.5C301.852 55.7667 305.352 57.6333 309.485 59.1C313.685 60.5 317.885 61.2 322.085 61.2C327.285 61.2 331.152 60.3667 333.685 58.7C336.285 57.0333 337.585 54.8333 337.585 52.1C337.585 50.1 336.852 48.4667 335.385 47.2C333.985 45.8667 332.185 44.8333 329.985 44.1C327.785 43.3667 324.785 42.5333 320.985 41.6C315.652 40.3333 311.319 39.0667 307.985 37.8C304.719 36.5333 301.885 34.5667 299.485 31.9C297.152 29.1667 295.985 25.5 295.985 20.9C295.985 17.0333 297.019 13.5333 299.085 10.4C301.219 7.2 304.385 4.66667 308.585 2.8C312.852 0.933333 318.052 0 324.185 0C328.452 0 332.652 0.533333 336.785 1.6C340.919 2.66667 344.485 4.2 347.485 6.2L343.385 16.3C340.319 14.5 337.119 13.1333 333.785 12.2C330.452 11.2667 327.219 10.8 324.085 10.8C318.952 10.8 315.119 11.6667 312.585 13.4C310.119 15.1333 308.885 17.4333 308.885 20.3C308.885 22.3 309.585 23.9333 310.985 25.2C312.452 26.4667 314.285 27.4667 316.485 28.2C318.685 28.9333 321.685 29.7667 325.485 30.7C330.685 31.9 334.952 33.1667 338.285 34.5C341.619 35.7667 344.452 37.7333 346.785 40.4C349.185 43.0667 350.385 46.6667 350.385 51.2C350.385 55.0667 349.319 58.5667 347.185 61.7C345.119 64.8333 341.952 67.3333 337.685 69.2C333.419 71.0667 328.219 72 322.085 72Z" fill="#9C4BFF"/>
<path d="M251.1 0C257.367 0 262.833 1.23333 267.5 3.7C272.167 6.16667 275.767 9.83333 278.3 14.7C280.9 19.5 282.2 25.3333 282.2 32.2V71H269.2V53H232.8V71H220V32.2C220 25.3333 221.267 19.5 223.8 14.7C226.4 9.83333 230.033 6.16667 234.7 3.7C239.367 1.23333 244.833 0 251.1 0ZM269.2 42.1V31C269.2 24.5333 267.6 19.6667 264.4 16.4C261.2 13.0667 256.733 11.4 251 11.4C245.267 11.4 240.8 13.0667 237.6 16.4C234.4 19.6667 232.8 24.5333 232.8 31V42.1H269.2Z" fill="#9C4BFF"/>
<path d="M568.578 31.6185C568.53 31.2761 568.362 30.9615 568.105 30.7289C567.848 30.4962 567.517 30.3603 567.17 30.3444C566.53 30.3444 555.256 30.0896 555.256 30.0896C555.256 30.0896 548.341 23.4577 545.777 20.9062V158.745L586 148.807C586 148.807 568.706 32.383 568.578 31.6185ZM536.683 20.9062C536.068 18.9772 535.296 17.1012 534.375 15.2969C531.034 8.92303 526.048 5.46694 520.154 5.46694C519.723 5.45205 519.293 5.49491 518.874 5.59435C518.746 5.33953 518.49 5.21211 518.362 4.95729C515.802 2.16375 512.473 0.889617 508.499 1.00747C500.819 1.2623 493.138 6.74107 486.978 16.5615C482.622 23.4481 479.298 32.1186 478.395 38.8779C469.556 41.5536 463.409 43.468 463.281 43.5954C458.801 44.9969 458.669 45.1243 458.161 49.329C457.777 52.5143 446 142.283 446 142.283L542.83 159V19.3773C542.359 19.3951 541.889 19.4377 541.422 19.5047C541.422 19.5047 539.63 20.0144 536.683 20.9062ZM519.005 26.3914C513.885 27.9204 508.243 29.7041 502.735 31.3637C504.271 25.3689 507.347 19.3773 510.934 15.437C512.342 14.0355 514.266 12.3759 516.442 11.3566C518.621 15.9339 519.133 22.1836 519.005 26.3914ZM508.499 6.24416C510.112 6.1937 511.709 6.586 513.113 7.37814C511.065 8.39745 509.014 10.057 507.094 11.9682C502.227 17.1985 498.511 25.3466 496.975 33.1347C492.361 34.5395 487.749 35.941 483.535 37.2152C486.338 24.9867 496.713 6.49899 508.499 6.24416ZM493.641 76.3756C494.153 84.5333 515.802 86.3202 517.082 105.572C517.978 120.747 509.011 131.074 496.073 131.842C480.446 132.861 471.864 123.681 471.864 123.681L475.192 109.666C475.192 109.666 483.775 116.17 490.693 115.66C495.173 115.406 496.844 111.707 496.713 109.156C496.073 98.4468 478.395 99.0839 477.243 81.4881C476.219 66.6954 485.954 51.7785 507.475 50.3738C515.795 49.8641 520.029 51.9059 520.029 51.9059L515.162 70.2534C515.162 70.2534 509.654 67.7052 503.119 68.2148C493.641 68.8551 493.513 74.8435 493.641 76.3756ZM524.128 24.8592C524.128 21.0368 523.616 15.5517 521.821 10.9616C527.716 12.1084 530.532 18.6064 531.815 22.5658C529.509 23.2029 526.947 23.9674 524.128 24.8592Z" fill="#070707"/>
</svg>
